<?xml version="1.0" encoding="UTF-8" standalone="no"?>
<!-- Created with Inkscape (http://www.inkscape.org/) -->

<svg
   xmlns:ns1="http://www.iki.fi/pav/software/textext/"
   xmlns:dc="http://purl.org/dc/elements/1.1/"
   xmlns:cc="http://creativecommons.org/ns#"
   xmlns:rdf="http://www.w3.org/1999/02/22-rdf-syntax-ns#"
   xmlns:svg="http://www.w3.org/2000/svg"
   xmlns="http://www.w3.org/2000/svg"
   xmlns:xlink="http://www.w3.org/1999/xlink"
   xmlns:sodipodi="http://sodipodi.sourceforge.net/DTD/sodipodi-0.dtd"
   xmlns:inkscape="http://www.inkscape.org/namespaces/inkscape"
   width="210mm"
   height="297mm"
   viewBox="0 0 744.09448819 1052.3622047"
   id="svg2"
   version="1.1"
   inkscape:version="0.92.5 (0.92.5+68)"
   sodipodi:docname="quad_payload.svg">
  <defs
     id="defs4">
    <marker
       inkscape:stockid="Arrow2Mend"
       orient="auto"
       refY="0.0"
       refX="0.0"
       id="marker6115"
       style="overflow:visible;"
       inkscape:isstock="true">
      <path
         id="path6113"
         style="fill-rule:evenodd;stroke-width:0.625;stroke-linejoin:round;stroke:#000000;stroke-opacity:1;fill:#000000;fill-opacity:1"
         d="M 8.7185878,4.0337352 L -2.2072895,0.016013256 L 8.7185884,-4.0017078 C 6.9730900,-1.6296469 6.9831476,1.6157441 8.7185878,4.0337352 z "
         transform="scale(0.6) rotate(180) translate(0,0)" />
    </marker>
    <marker
       inkscape:stockid="Arrow2Mstart"
       orient="auto"
       refY="0.0"
       refX="0.0"
       id="marker6071"
       style="overflow:visible"
       inkscape:isstock="true">
      <path
         id="path6069"
         style="fill-rule:evenodd;stroke-width:0.625;stroke-linejoin:round;stroke:#000000;stroke-opacity:1;fill:#000000;fill-opacity:1"
         d="M 8.7185878,4.0337352 L -2.2072895,0.016013256 L 8.7185884,-4.0017078 C 6.9730900,-1.6296469 6.9831476,1.6157441 8.7185878,4.0337352 z "
         transform="scale(0.6) translate(0,0)" />
    </marker>
    <marker
       inkscape:stockid="Arrow2Mstart"
       orient="auto"
       refY="0.0"
       refX="0.0"
       id="Arrow2Mstart"
       style="overflow:visible"
       inkscape:isstock="true">
      <path
         id="path5782"
         style="fill-rule:evenodd;stroke-width:0.625;stroke-linejoin:round;stroke:#000000;stroke-opacity:1;fill:#000000;fill-opacity:1"
         d="M 8.7185878,4.0337352 L -2.2072895,0.016013256 L 8.7185884,-4.0017078 C 6.9730900,-1.6296469 6.9831476,1.6157441 8.7185878,4.0337352 z "
         transform="scale(0.6) translate(0,0)" />
    </marker>
    <marker
       inkscape:stockid="Arrow2Mend"
       orient="auto"
       refY="0.0"
       refX="0.0"
       id="Arrow2Mend"
       style="overflow:visible;"
       inkscape:isstock="true">
      <path
         id="path5785"
         style="fill-rule:evenodd;stroke-width:0.625;stroke-linejoin:round;stroke:#000000;stroke-opacity:1;fill:#000000;fill-opacity:1"
         d="M 8.7185878,4.0337352 L -2.2072895,0.016013256 L 8.7185884,-4.0017078 C 6.9730900,-1.6296469 6.9831476,1.6157441 8.7185878,4.0337352 z "
         transform="scale(0.6) rotate(180) translate(0,0)" />
    </marker>
    <marker
       inkscape:stockid="Arrow1Lend"
       orient="auto"
       refY="0.0"
       refX="0.0"
       id="marker6021"
       style="overflow:visible;"
       inkscape:isstock="true">
      <path
         id="path5761"
         d="M 0.0,0.0 L 5.0,-5.0 L -12.5,0.0 L 5.0,5.0 L 0.0,0.0 z "
         style="fill-rule:evenodd;stroke:#000000;stroke-width:1pt;stroke-opacity:1;fill:#000000;fill-opacity:1"
         transform="scale(0.8) rotate(180) translate(12.5,0)" />
    </marker>
    <marker
       inkscape:stockid="Arrow1Lend"
       orient="auto"
       refY="0"
       refX="-1"
       id="marker27467"
       style="overflow:visible"
       inkscape:isstock="true">
      <path
         id="path27469"
         d="M 0,0 5,-5 -12.5,0 5,5 0,0 Z"
         style="fill:#1378e9;fill-opacity:1;fill-rule:evenodd;stroke:#1378e9;stroke-width:1pt;stroke-opacity:1"
         transform="matrix(-0.4,0,0,-0.4,-5,0)"
         inkscape:connector-curvature="0" />
    </marker>
    <marker
       inkscape:stockid="Arrow1Lend"
       orient="auto"
       refY="0"
       refX="-1"
       id="marker27307"
       style="overflow:visible"
       inkscape:isstock="true">
      <path
         id="path27309"
         d="M 0,0 5,-5 -12.5,0 5,5 0,0 Z"
         style="fill:#000000;fill-opacity:1;fill-rule:evenodd;stroke:#000000;stroke-width:1pt;stroke-opacity:1"
         transform="matrix(-0.4,0,0,-0.4,-5,0)"
         inkscape:connector-curvature="0" />
    </marker>
    <marker
       inkscape:stockid="Arrow1Lend"
       orient="auto"
       refY="0"
       refX="-1"
       id="marker26307"
       style="overflow:visible"
       inkscape:isstock="true">
      <path
         id="path26309"
         d="M 0,0 5,-5 -12.5,0 5,5 0,0 Z"
         style="fill:#1378e9;fill-opacity:1;fill-rule:evenodd;stroke:#1378e9;stroke-width:1pt;stroke-opacity:1"
         transform="matrix(-0.4,0,0,-0.4,-5,0)"
         inkscape:connector-curvature="0" />
    </marker>
    <marker
       inkscape:stockid="Arrow1Lend"
       orient="auto"
       refY="0"
       refX="-1"
       id="marker19671"
       style="overflow:visible"
       inkscape:isstock="true">
      <path
         id="path19673"
         d="M 0,0 5,-5 -12.5,0 5,5 0,0 Z"
         style="fill:#1378e9;fill-opacity:1;fill-rule:evenodd;stroke:#1378e9;stroke-width:1pt;stroke-opacity:1"
         transform="matrix(-0.4,0,0,-0.4,-5,0)"
         inkscape:connector-curvature="0" />
    </marker>
    <marker
       inkscape:stockid="Arrow1Lend"
       orient="auto"
       refY="0"
       refX="-1"
       id="marker17990"
       style="overflow:visible"
       inkscape:isstock="true">
      <path
         id="path17992"
         d="M 0,0 5,-5 -12.5,0 5,5 0,0 Z"
         style="fill:#1378e9;fill-opacity:1;fill-rule:evenodd;stroke:#1378e9;stroke-width:1pt;stroke-opacity:1"
         transform="matrix(-0.4,0,0,-0.4,-5,0)"
         inkscape:connector-curvature="0" />
    </marker>
    <marker
       inkscape:isstock="true"
       style="overflow:visible"
       id="marker8883"
       refX="-1"
       refY="0"
       orient="auto"
       inkscape:stockid="Arrow1Lend">
      <path
         inkscape:connector-curvature="0"
         transform="matrix(-0.4,0,0,-0.4,-5,0)"
         style="fill:#1378e9;fill-opacity:1;fill-rule:evenodd;stroke:#1378e9;stroke-width:1pt;stroke-opacity:1"
         d="M 0,0 5,-5 -12.5,0 5,5 0,0 Z"
         id="path8885" />
    </marker>
    <marker
       inkscape:isstock="true"
       style="overflow:visible"
       id="marker7317"
       refX="1"
       refY="0"
       orient="auto"
       inkscape:stockid="Arrow1Lend">
      <path
         inkscape:connector-curvature="0"
         transform="matrix(-0.2,0,0,-0.2,-2.5,0)"
         style="fill:#000000;fill-opacity:1;fill-rule:evenodd;stroke:#000000;stroke-width:1pt;stroke-opacity:1"
         d="M 0,0 5,-5 -12.5,0 5,5 0,0 Z"
         id="path7319" />
    </marker>
    <marker
       inkscape:isstock="true"
       style="overflow:visible;"
       id="Arrow1Lend"
       refX="0.0"
       refY="0.0"
       orient="auto"
       inkscape:stockid="Arrow1Lend">
      <path
         inkscape:connector-curvature="0"
         transform="matrix(-0.2,0,0,-0.2,-2.5,0)"
         style="fill:#000000;fill-opacity:1;fill-rule:evenodd;stroke:#000000;stroke-width:1pt;stroke-opacity:1"
         d="M 0,0 5,-5 -12.5,0 5,5 0,0 Z"
         id="path4336" />
    </marker>
    <marker
       inkscape:isstock="true"
       style="overflow:visible"
       id="marker4609"
       refX="0.0"
       refY="0.0"
       orient="auto"
       inkscape:stockid="Arrow1Lstart">
      <path
         inkscape:connector-curvature="0"
         transform="matrix(0.2,0,0,0.2,2.5,0)"
         style="fill:#000000;fill-opacity:1;fill-rule:evenodd;stroke:#000000;stroke-width:1pt;stroke-opacity:1"
         d="M 0,0 5,-5 -12.5,0 5,5 0,0 Z"
         id="path4611" />
    </marker>
    <marker
       inkscape:isstock="true"
       style="overflow:visible"
       id="Arrow1Lstart"
       refX="1"
       refY="0"
       orient="auto"
       inkscape:stockid="Arrow1Lstart">
      <path
         inkscape:connector-curvature="0"
         transform="matrix(0.8,0,0,0.8,10,0)"
         style="fill:#000000;fill-opacity:1;fill-rule:evenodd;stroke:#000000;stroke-width:1pt;stroke-opacity:1"
         d="M 0,0 5,-5 -12.5,0 5,5 0,0 Z"
         id="path4333" />
    </marker>
    <inkscape:perspective
       id="perspective4264"
       inkscape:persp3d-origin="372.04724 : 350.7874 : 1"
       inkscape:vp_z="714.26342 : 425.08692 : 1"
       inkscape:vp_y="0 : 1000 : 0"
       inkscape:vp_x="182.80605 : 475.81552 : 1"
       sodipodi:type="inkscape:persp3d" />
    <linearGradient
       id="linearGradient4140"
       inkscape:collect="always">
      <stop
         id="stop4142"
         offset="0"
         style="stop-color:#3082ff;stop-opacity:1;" />
      <stop
         id="stop4144"
         offset="1"
         style="stop-color:#3082ff;stop-opacity:0;" />
    </linearGradient>
    <linearGradient
       gradientUnits="userSpaceOnUse"
       y2="416.97625"
       x2="513.33107"
       y1="416.97625"
       x1="214.98892"
       id="linearGradient4146"
       xlink:href="#linearGradient4140"
       inkscape:collect="always" />
    <marker
       inkscape:isstock="true"
       style="overflow:visible"
       id="marker8883-9"
       refX="0"
       refY="0"
       orient="auto"
       inkscape:stockid="Arrow1Lend">
      <path
         inkscape:connector-curvature="0"
         transform="matrix(-0.4,0,0,-0.4,-5,0)"
         style="fill:#1378e9;fill-opacity:1;fill-rule:evenodd;stroke:#1378e9;stroke-width:1pt;stroke-opacity:1"
         d="M 0,0 5,-5 -12.5,0 5,5 0,0 Z"
         id="path8885-1" />
    </marker>
    <marker
       inkscape:isstock="true"
       style="overflow:visible"
       id="marker8883-7"
       refX="-1"
       refY="0"
       orient="auto"
       inkscape:stockid="Arrow1Lend">
      <path
         inkscape:connector-curvature="0"
         transform="matrix(-0.4,0,0,-0.4,-5,0)"
         style="fill:#1378e9;fill-opacity:1;fill-rule:evenodd;stroke:#1378e9;stroke-width:1pt;stroke-opacity:1"
         d="M 0,0 5,-5 -12.5,0 5,5 0,0 Z"
         id="path8885-0" />
    </marker>
    <marker
       inkscape:isstock="true"
       style="overflow:visible"
       id="marker18052"
       refX="-1"
       refY="0"
       orient="auto"
       inkscape:stockid="Arrow1Lend">
      <path
         inkscape:connector-curvature="0"
         transform="matrix(-0.4,0,0,-0.4,-5,0)"
         style="fill:#1378e9;fill-opacity:1;fill-rule:evenodd;stroke:#1378e9;stroke-width:1pt;stroke-opacity:1"
         d="M 0,0 5,-5 -12.5,0 5,5 0,0 Z"
         id="path18054" />
    </marker>
    <marker
       inkscape:isstock="true"
       style="overflow:visible"
       id="marker18056"
       refX="-1"
       refY="0"
       orient="auto"
       inkscape:stockid="Arrow1Lend">
      <path
         inkscape:connector-curvature="0"
         transform="matrix(-0.4,0,0,-0.4,-5,0)"
         style="fill:#1378e9;fill-opacity:1;fill-rule:evenodd;stroke:#1378e9;stroke-width:1pt;stroke-opacity:1"
         d="M 0,0 5,-5 -12.5,0 5,5 0,0 Z"
         id="path18058" />
    </marker>
    <marker
       inkscape:stockid="Arrow1Lend"
       orient="auto"
       refY="0"
       refX="-1"
       id="marker17990-9"
       style="overflow:visible"
       inkscape:isstock="true">
      <path
         id="path17992-2"
         d="M 0,0 5,-5 -12.5,0 5,5 0,0 Z"
         style="fill:#1378e9;fill-opacity:1;fill-rule:evenodd;stroke:#1378e9;stroke-width:1pt;stroke-opacity:1"
         transform="matrix(-0.4,0,0,-0.4,-5,0)"
         inkscape:connector-curvature="0" />
    </marker>
    <marker
       inkscape:collect="always"
       inkscape:isstock="true"
       style="overflow:visible"
       id="marker8883-2"
       refX="-1"
       refY="0"
       orient="auto"
       inkscape:stockid="Arrow1Lend">
      <path
         inkscape:connector-curvature="0"
         transform="matrix(-0.4,0,0,-0.4,-5,0)"
         style="fill:#000000;fill-opacity:1;fill-rule:evenodd;stroke:#000000;stroke-width:1pt;stroke-opacity:1"
         d="M 0,0 5,-5 -12.5,0 5,5 0,0 Z"
         id="path8885-8" />
    </marker>
    <marker
       inkscape:collect="always"
       inkscape:isstock="true"
       style="overflow:visible"
       id="marker8883-7-3-3"
       refX="-1"
       refY="0"
       orient="auto"
       inkscape:stockid="Arrow1Lend">
      <path
         inkscape:connector-curvature="0"
         transform="matrix(-0.4,0,0,-0.4,-5,0)"
         style="fill:#000000;fill-opacity:1;fill-rule:evenodd;stroke:#000000;stroke-width:1pt;stroke-opacity:1"
         d="M 0,0 5,-5 -12.5,0 5,5 0,0 Z"
         id="path8885-0-6-6" />
    </marker>
    <marker
       inkscape:isstock="true"
       style="overflow:visible"
       id="marker27104"
       refX="-1"
       refY="0"
       orient="auto"
       inkscape:stockid="Arrow1Lend">
      <path
         inkscape:connector-curvature="0"
         transform="matrix(-0.4,0,0,-0.4,-5,0)"
         style="fill:#1378e9;fill-opacity:1;fill-rule:evenodd;stroke:#1378e9;stroke-width:1pt;stroke-opacity:1"
         d="M 0,0 5,-5 -12.5,0 5,5 0,0 Z"
         id="path27106" />
    </marker>
    <marker
       inkscape:isstock="true"
       style="overflow:visible"
       id="marker27108"
       refX="-1"
       refY="0"
       orient="auto"
       inkscape:stockid="Arrow1Lend">
      <path
         inkscape:connector-curvature="0"
         transform="matrix(-0.4,0,0,-0.4,-5,0)"
         style="fill:#1378e9;fill-opacity:1;fill-rule:evenodd;stroke:#1378e9;stroke-width:1pt;stroke-opacity:1"
         d="M 0,0 5,-5 -12.5,0 5,5 0,0 Z"
         id="path27110" />
    </marker>
    <marker
       inkscape:stockid="Arrow1Lend"
       orient="auto"
       refY="0"
       refX="-1"
       id="marker17990-1"
       style="overflow:visible"
       inkscape:isstock="true">
      <path
         id="path17992-29"
         d="M 0,0 5,-5 -12.5,0 5,5 0,0 Z"
         style="fill:#1378e9;fill-opacity:1;fill-rule:evenodd;stroke:#1378e9;stroke-width:1pt;stroke-opacity:1"
         transform="matrix(-0.4,0,0,-0.4,-5,0)"
         inkscape:connector-curvature="0" />
    </marker>
  </defs>
  <sodipodi:namedview
     id="base"
     pagecolor="#ffffff"
     bordercolor="#666666"
     borderopacity="1.0"
     inkscape:pageopacity="0.0"
     inkscape:pageshadow="2"
     inkscape:zoom="1.4"
     inkscape:cx="228.98695"
     inkscape:cy="566.58993"
     inkscape:document-units="px"
     inkscape:current-layer="layer1"
     showgrid="false"
     inkscape:window-width="1855"
     inkscape:window-height="1056"
     inkscape:window-x="1145"
     inkscape:window-y="24"
     inkscape:window-maximized="1">
    <inkscape:grid
       type="xygrid"
       id="grid4667" />
  </sodipodi:namedview>
  <metadata
     id="metadata7">
    <rdf:RDF>
      <cc:Work
         rdf:about="">
        <dc:format>image/svg+xml</dc:format>
        <dc:type
           rdf:resource="http://purl.org/dc/dcmitype/StillImage" />
        <dc:title />
      </cc:Work>
    </rdf:RDF>
  </metadata>
  <g
     inkscape:label="Layer 1"
     inkscape:groupmode="layer"
     id="layer1">
    <path
       style="fill:none;fill-rule:evenodd;stroke:#000000;stroke-width:2;stroke-linecap:butt;stroke-linejoin:miter;stroke-miterlimit:4;stroke-dasharray:none;stroke-opacity:1;marker-end:url(#marker8883-2)"
       d="m 101.90303,418.7204 -0.23571,75.24971"
       id="path8881-1"
       inkscape:connector-curvature="0"
       sodipodi:nodetypes="cc" />
    <path
       style="fill:none;fill-rule:evenodd;stroke:#000000;stroke-width:2;stroke-linecap:butt;stroke-linejoin:miter;stroke-miterlimit:4;stroke-dasharray:none;stroke-opacity:1;marker-end:url(#marker8883-7-3-3)"
       d="M 102.14123,417.82197 42.18738,470.6223"
       id="path8881-9-0-4"
       inkscape:connector-curvature="0"
       sodipodi:nodetypes="cc"
       inkscape:transform-center-x="20.369425"
       inkscape:transform-center-y="19.996737" />
    <path
       sodipodi:nodetypes="cc"
       inkscape:connector-curvature="0"
       id="path17916-8"
       d="m 101.20459,418.17104 76.87795,-0.10569"
       style="fill:none;fill-rule:evenodd;stroke:#000000;stroke-width:2;stroke-linecap:butt;stroke-linejoin:miter;stroke-miterlimit:4;stroke-dasharray:none;stroke-opacity:1;marker-end:url(#marker27307)" />
    <g
       id="g6062"
       style="stroke-width:4;stroke-miterlimit:4;stroke-dasharray:none">
      <path
         inkscape:connector-curvature="0"
         id="path3336"
         d="M 534.75205,320.96776 C 209.74713,345.41734 209.74713,345.41734 209.74713,345.41734"
         style="fill:#3082ff;fill-opacity:1;fill-rule:evenodd;stroke:#000000;stroke-width:4;stroke-linecap:butt;stroke-linejoin:miter;stroke-miterlimit:4;stroke-dasharray:none;stroke-opacity:1">
        <title
           id="title3338">been1</title>
      </path>
      <path
         inkscape:connector-curvature="0"
         id="path3336-3"
         d="M 221.40368,273.10908 C 524.17474,393.31239 524.17474,393.31239 524.17474,393.31239"
         style="fill:none;fill-opacity:1;fill-rule:evenodd;stroke:#000000;stroke-width:4;stroke-linecap:butt;stroke-linejoin:miter;stroke-miterlimit:4;stroke-dasharray:none;stroke-opacity:1">
        <title
           id="title3338-6">been2</title>
      </path>
      <path
         inkscape:connector-curvature="0"
         id="path4166"
         d="m 221.79382,273.78751 c 4.13781,-26.91758 4.13781,-26.91758 4.13781,-26.91758"
         style="fill:none;fill-rule:evenodd;stroke:#000000;stroke-width:4;stroke-linecap:butt;stroke-linejoin:miter;stroke-miterlimit:4;stroke-dasharray:none;stroke-opacity:1" />
      <path
         inkscape:connector-curvature="0"
         id="path4166-7"
         d="m 210.35341,346.10287 c 4.13781,-26.91757 4.13781,-26.91757 4.13781,-26.91757"
         style="fill:none;fill-rule:evenodd;stroke:#000000;stroke-width:4;stroke-linecap:butt;stroke-linejoin:miter;stroke-miterlimit:4;stroke-dasharray:none;stroke-opacity:1" />
      <path
         inkscape:connector-curvature="0"
         id="path4166-5"
         d="m 533.97882,321.58758 c 4.13781,-26.91759 4.13781,-26.91759 4.13781,-26.91759"
         style="fill:none;fill-rule:evenodd;stroke:#000000;stroke-width:4;stroke-linecap:butt;stroke-linejoin:miter;stroke-miterlimit:4;stroke-dasharray:none;stroke-opacity:1" />
      <path
         inkscape:connector-curvature="0"
         id="path4166-5-3"
         d="m 523.36931,393.79986 c 4.13781,-26.91758 4.13781,-26.91758 4.13781,-26.91758"
         style="fill:none;fill-rule:evenodd;stroke:#000000;stroke-width:4;stroke-linecap:butt;stroke-linejoin:miter;stroke-miterlimit:4;stroke-dasharray:none;stroke-opacity:1" />
      <ellipse
         transform="matrix(0.98839021,0.1519368,-0.1519368,0.98839021,0,0)"
         ry="13.806276"
         rx="45.920677"
         cy="195.42538"
         cx="260.81656"
         id="path4213"
         style="fill:none;fill-opacity:1;stroke:#000000;stroke-width:4;stroke-miterlimit:4;stroke-dasharray:none;stroke-opacity:1" />
      <ellipse
         transform="matrix(-0.98839021,-0.1519368,-0.1519368,0.98839021,0,0)"
         ry="13.806276"
         rx="45.920677"
         cy="195.05551"
         cx="-576.40826"
         id="path4213-5"
         style="fill:none;fill-opacity:1;stroke:#000000;stroke-width:4;stroke-miterlimit:4;stroke-dasharray:none;stroke-opacity:1" />
      <ellipse
         transform="matrix(0.98839021,0.1519368,-0.1519368,0.98839021,0,0)"
         ry="13.806276"
         rx="45.920677"
         cy="267.86331"
         cx="576.98969"
         id="path4213-6"
         style="fill:none;fill-opacity:1;stroke:#000000;stroke-width:4;stroke-miterlimit:4;stroke-dasharray:none;stroke-opacity:1" />
      <ellipse
         transform="matrix(0.98839021,0.1519368,-0.1519368,0.98839021,0,0)"
         ry="13.806276"
         rx="45.920677"
         cy="268.34952"
         cx="260.44626"
         id="path4213-2"
         style="fill:none;fill-opacity:1;stroke:#000000;stroke-width:4;stroke-miterlimit:4;stroke-dasharray:none;stroke-opacity:1" />
    </g>
    <path
       style="fill:none;fill-rule:evenodd;stroke:#000000;stroke-width:1.5;stroke-linecap:butt;stroke-linejoin:miter;stroke-miterlimit:4;stroke-dasharray:none;stroke-opacity:1"
       d="m 372.42857,332.93363 0,253"
       id="path5070"
       inkscape:connector-curvature="0" />
    <path
       style="fill:none;fill-rule:evenodd;stroke:#000000;stroke-width:1.5;stroke-linecap:butt;stroke-linejoin:miter;stroke-miterlimit:4;stroke-dasharray:none;stroke-opacity:1"
       d="m 372.42857,585.93363 241,0"
       id="path5100"
       inkscape:connector-curvature="0" />
    <path
       style="fill:none;fill-rule:evenodd;stroke:#000000;stroke-width:1.5;stroke-linecap:butt;stroke-linejoin:miter;stroke-miterlimit:4;stroke-dasharray:none;stroke-opacity:1"
       d="M 372.58145,585.80238 240.0882,702.56318"
       id="path8881-9-0-4-2"
       inkscape:connector-curvature="0"
       sodipodi:nodetypes="cc"
       inkscape:transform-center-x="45.014823"
       inkscape:transform-center-y="44.220099" />
    <path
       style="fill:none;fill-rule:evenodd;stroke:#000000;stroke-width:1.5;stroke-linecap:butt;stroke-linejoin:miter;stroke-miterlimit:4;stroke-dasharray:4.50000001, 4.50000001;stroke-dashoffset:0;stroke-opacity:1"
       d="M 613.24119,585.82003 480.36901,702.91511"
       id="path8881-9-0-4-2-9"
       inkscape:connector-curvature="0"
       sodipodi:nodetypes="cc"
       inkscape:transform-center-x="45.143564"
       inkscape:transform-center-y="44.346706" />
    <path
       style="fill:none;fill-rule:evenodd;stroke:#000000;stroke-width:1.5;stroke-linecap:butt;stroke-linejoin:miter;stroke-miterlimit:4;stroke-dasharray:4.5, 4.5;stroke-dashoffset:0;stroke-opacity:1"
       d="m 240.0491,702.41684 241,0"
       id="path5100-1"
       inkscape:connector-curvature="0" />
    <path
       style="fill:none;fill-rule:evenodd;stroke:#000000;stroke-width:1.5;stroke-linecap:butt;stroke-linejoin:miter;stroke-miterlimit:4;stroke-dasharray:4.50000007, 4.50000007;stroke-dashoffset:0;stroke-opacity:1"
       d="M 372.04556,333.48077 240.31029,449.57289"
       id="path8881-9-0-4-2-2"
       inkscape:connector-curvature="0"
       sodipodi:nodetypes="cc"
       inkscape:transform-center-x="44.757297"
       inkscape:transform-center-y="43.966865" />
    <path
       style="fill:none;fill-rule:evenodd;stroke:#000000;stroke-width:1.5;stroke-linecap:butt;stroke-linejoin:miter;stroke-miterlimit:4;stroke-dasharray:4.5, 4.5;stroke-dashoffset:0;stroke-opacity:1"
       d="m 240.31507,449.88934 0,253"
       id="path5070-7"
       inkscape:connector-curvature="0" />
    <path
       style="fill:none;fill-rule:evenodd;stroke:#000000;stroke-width:1.5;stroke-linecap:butt;stroke-linejoin:miter;stroke-miterlimit:4;stroke-dasharray:4.5,4.5;stroke-dashoffset:0;stroke-opacity:1"
       d="m 613.06136,332.9147 0,253"
       id="path5070-7-0"
       inkscape:connector-curvature="0" />
    <path
       style="fill:none;fill-rule:evenodd;stroke:#000000;stroke-width:1.5;stroke-linecap:butt;stroke-linejoin:miter;stroke-miterlimit:4;stroke-dasharray:4.5,4.5;stroke-dashoffset:0;stroke-opacity:1"
       d="m 372.07196,333.14297 241,0"
       id="path5100-1-9"
       inkscape:connector-curvature="0" />
    <circle
       style="opacity:1;fill:#000000;fill-opacity:1;stroke:#000000;stroke-width:1.5;stroke-linejoin:miter;stroke-miterlimit:4;stroke-dasharray:none;stroke-dashoffset:0;stroke-opacity:1"
       id="path6076"
       cx="460.00226"
       cy="672.38995"
       r="20"
       inkscape:transform-center-x="-13.51079"
       inkscape:transform-center-y="-16.920055" />
    <path
       style="fill:none;fill-rule:evenodd;stroke:#000000;stroke-width:1.5;stroke-linecap:butt;stroke-linejoin:miter;stroke-miterlimit:4;stroke-dasharray:4.50000001, 4.50000001;stroke-dashoffset:0;stroke-opacity:1"
       d="M 460.27786,672.05872 562.52813,586.39788"
       id="path6078"
       inkscape:connector-curvature="0" />
    <path
       style="fill:none;fill-rule:evenodd;stroke:#000000;stroke-width:1.5;stroke-linecap:butt;stroke-linejoin:miter;stroke-miterlimit:4;stroke-dasharray:4.50000008, 4.50000008;stroke-dashoffset:0;stroke-opacity:1"
       d="m 274.31075,672.61545 185.77322,0"
       id="path5100-1-3"
       inkscape:connector-curvature="0" />
    <path
       style="fill:none;fill-rule:evenodd;stroke:#000000;stroke-width:1px;stroke-linecap:butt;stroke-linejoin:miter;stroke-opacity:1"
       d="m 372,333.3622 c 0,0 -2,-4 0,0 z"
       id="path6101"
       inkscape:connector-curvature="0" />
    <path
       style="fill:none;fill-rule:evenodd;stroke:#000000;stroke-width:1.5;stroke-linecap:butt;stroke-linejoin:miter;stroke-opacity:1;stroke-miterlimit:4;stroke-dasharray:4.5,4.5;stroke-dashoffset:0"
       d="m 373,333.3622 191,252"
       id="path6103"
       inkscape:connector-curvature="0" />
    <path
       style="fill:none;fill-rule:evenodd;stroke:#000000;stroke-width:1.5;stroke-linecap:butt;stroke-linejoin:miter;stroke-opacity:1;stroke-miterlimit:4;stroke-dasharray:4.5,4.5;stroke-dashoffset:0"
       d="m 373,332.3622 -99,340"
       id="path6105"
       inkscape:connector-curvature="0" />
    <path
       style="fill:none;fill-rule:evenodd;stroke:#000000;stroke-width:2.5;stroke-linecap:butt;stroke-linejoin:miter;stroke-opacity:1;stroke-miterlimit:4;stroke-dasharray:none"
       d="m 460,672.3622 -87,-339"
       id="path6107"
       inkscape:connector-curvature="0" />
    <g
       id="g1339">
      <path
         id="path5489"
         d="m 440.62501,382.04968 c 0,-1.64202 -0.43006,-5.12153 -2.97128,-5.12153 -3.47949,0 -7.31088,7.03722 -7.31088,12.74518 0,2.34575 0.70371,5.12154 2.97125,5.12154 3.51863,0 7.31091,-7.15451 7.31091,-12.74519 z m -7.66276,3.40134 c 0.43005,-1.56385 0.93831,-3.55771 1.95479,-5.35613 0.66463,-1.21195 1.56383,-2.6194 2.6976,-2.6194 1.21197,0 1.36837,1.60294 1.36837,3.01037 0,1.25105 -0.19556,2.50211 -0.78194,4.96516 z m 5.00425,0.821 c -0.27366,1.13377 -0.78192,3.24492 -1.75929,5.04334 -0.86011,1.7202 -1.7984,2.93217 -2.89311,2.93217 -0.821,0 -1.32923,-0.74283 -1.32923,-3.04946 0,-1.05557 0.15621,-2.50213 0.78192,-4.92605 z m 0,0"
         style="fill:#000000;fill-opacity:1;stroke:none;stroke-width:0"
         inkscape:connector-curvature="0" />
      <path
         id="path5497"
         d="m 442.27737,402.7951 c -0.11734,0.50823 -0.15645,0.62552 -0.82103,0.62552 -0.23466,0 -0.46914,0 -0.46914,0.39097 0,0.19555 0.15644,0.27366 0.23467,0.27366 0.43005,0 1.01648,-0.0782 1.48565,-0.0782 0.58643,0 1.25103,0.0782 1.83748,0.0782 0.15621,0 0.35186,-0.0782 0.35186,-0.39095 0,-0.27368 -0.23466,-0.27368 -0.46914,-0.27368 -0.39097,0 -0.86011,0 -0.86011,-0.19556 0,-0.0782 0.15644,-0.54734 0.19555,-0.78191 0.23467,-0.93831 0.46915,-1.8766 0.66463,-2.61942 0.19556,0.35188 0.74283,1.01648 1.7984,1.01648 2.11117,0 4.45691,-2.34574 4.45691,-4.92605 0,-2.03297 -1.40746,-2.93217 -2.58031,-2.93217 -1.09469,0 -2.033,0.74283 -2.50214,1.25106 -0.27366,-1.01649 -1.25106,-1.25106 -1.7984,-1.25106 -0.66463,0 -1.09466,0.46914 -1.36834,0.93829 -0.35188,0.58643 -0.62554,1.64202 -0.62554,1.75931 0,0.19555 0.23466,0.19555 0.31277,0.19555 0.23466,0 0.23466,-0.0391 0.35188,-0.50823 0.27366,-1.01651 0.62551,-1.87659 1.29014,-1.87659 0.46915,0 0.58643,0.39094 0.58643,0.86008 0,0.19556 -0.0391,0.39095 -0.0782,0.50823 z m 3.32311,-7.70185 c 1.01649,-1.36834 1.8766,-1.60291 2.42394,-1.60291 0.70372,0 1.29017,0.50823 1.29017,1.68111 0,0.70372 -0.39097,2.50212 -0.89922,3.5186 -0.46915,0.86009 -1.29015,1.68111 -2.18935,1.68111 -1.25105,0 -1.56382,-1.32925 -1.56382,-1.52474 0,-0.0782 0.0391,-0.19555 0.0391,-0.27365 z m 0,0"
         style="fill:#000000;fill-opacity:1;stroke:none;stroke-width:0"
         inkscape:connector-curvature="0" />
    </g>
    <g
       id="g1346">
      <path
         id="path5505"
         d="m 460.04986,486.43214 c 0,-0.0783 0.0782,-0.35186 0.0782,-0.35186 0,-0.039 0,-0.27366 -0.31277,-0.27366 -0.23457,0 -0.27366,0.0782 -0.39095,0.50823 l -1.44655,5.74707 c -3.94865,0.15632 -7.62366,3.44041 -7.62366,6.84174 0,2.38483 1.75931,4.33962 4.80877,4.5351 -0.19547,0.74281 -0.39095,1.56382 -0.58644,2.34574 -0.31275,1.17287 -0.54732,2.11117 -0.54732,2.18935 0,0.23457 0.19546,0.27368 0.31275,0.27368 0.11729,0 0.15632,-0.039 0.23457,-0.11729 0.039,-0.039 0.19549,-0.62554 0.27369,-0.9774 l 0.93829,-3.71408 c 4.02685,-0.15632 7.66275,-3.51861 7.66275,-6.84175 0,-1.99388 -1.32927,-4.26143 -4.80877,-4.53509 z m -4.76968,16.45928 c -1.48562,-0.0783 -3.28404,-0.97739 -3.28404,-3.44042 0,-3.01037 2.15028,-6.48989 5.86435,-6.84175 z m 3.20586,-10.28217 c 1.91568,0.11728 3.32312,1.25106 3.32312,3.44043 0,2.97126 -2.15025,6.52897 -5.86435,6.84174 z m 0,0"
         style="fill:#000000;fill-opacity:1;stroke:none;stroke-width:0"
         inkscape:connector-curvature="0" />
      <path
         id="path5513"
         d="m 465.28593,511.39989 c -0.11729,0.50824 -0.15632,0.62552 -0.82101,0.62552 -0.23458,0 -0.46915,0 -0.46915,0.39097 0,0.19547 0.15632,0.27367 0.23457,0.27367 0.43006,0 1.0165,-0.0783 1.48565,-0.0783 0.58643,0 1.25105,0.0783 1.83748,0.0783 0.15632,0 0.35186,-0.0783 0.35186,-0.39096 0,-0.27368 -0.23457,-0.27368 -0.46915,-0.27368 -0.39095,0 -0.8601,0 -0.8601,-0.19546 0,-0.0783 0.15632,-0.54735 0.19549,-0.78192 0.23457,-0.9383 0.46915,-1.8766 0.66461,-2.61941 0.19549,0.35186 0.74283,1.01648 1.79842,1.01648 2.11116,0 4.45691,-2.34574 4.45691,-4.92606 0,-2.03297 -1.40745,-2.93217 -2.58032,-2.93217 -1.09469,0 -2.03299,0.74283 -2.50214,1.25106 -0.27366,-1.01649 -1.25105,-1.25106 -1.79839,-1.25106 -0.66463,0 -1.09467,0.46914 -1.36836,0.93829 -0.35186,0.58644 -0.62552,1.64202 -0.62552,1.75931 0,0.19548 0.23457,0.19548 0.31277,0.19548 0.23457,0 0.23457,-0.039 0.35186,-0.50824 0.27367,-1.01649 0.62553,-1.87659 1.29016,-1.87659 0.46915,0 0.58643,0.39095 0.58643,0.8601 0,0.19549 -0.039,0.39095 -0.0783,0.50824 z m 3.32312,-7.70186 c 1.0165,-1.36833 1.8766,-1.60291 2.42394,-1.60291 0.70372,0 1.29016,0.50824 1.29016,1.68111 0,0.70372 -0.39095,2.50212 -0.89921,3.51861 -0.46915,0.8601 -1.29015,1.68111 -2.18934,1.68111 -1.25107,0 -1.56384,-1.32925 -1.56384,-1.52473 0,-0.0783 0.039,-0.19547 0.039,-0.27367 z m 0,0"
         style="fill:#000000;fill-opacity:1;stroke:none;stroke-width:0"
         inkscape:connector-curvature="0" />
    </g>
    <path
       inkscape:connector-curvature="0"
       id="path5752"
       d="M 375.00001,414.86218 Z"
       style="fill:none;fill-rule:evenodd;stroke:#000000;stroke-width:0.9375px;stroke-linecap:butt;stroke-linejoin:miter;stroke-opacity:1" />
    <path
       sodipodi:nodetypes="cc"
       inkscape:connector-curvature="0"
       id="path5756"
       d="m 375.25579,410.03566 c 0,0 26.04635,15.00068 54.11922,0.4735"
       style="fill:none;fill-rule:evenodd;stroke:#000000;stroke-width:1.77165353;stroke-linecap:butt;stroke-linejoin:miter;stroke-miterlimit:4;stroke-dasharray:none;stroke-opacity:1;marker-start:url(#Arrow2Mstart);marker-end:url(#Arrow2Mend)" />
    <path
       sodipodi:nodetypes="cc"
       inkscape:connector-curvature="0"
       id="path6067"
       d="m 466.62042,460.41303 c 0,0 -12.52624,34.71146 -47.72804,38.0675"
       style="fill:none;fill-rule:evenodd;stroke:#000000;stroke-width:1.77165353;stroke-linecap:butt;stroke-linejoin:miter;stroke-miterlimit:4;stroke-dasharray:none;stroke-opacity:1;marker-start:url(#marker6071);marker-end:url(#marker6115)" />
    <g
       id="g21911"
       transform="translate(139.28572,-32.8125)">
      <path
         id="path21628"
         d="m 392.50024,276.5493 c -0.95958,-0.3669 -2.96341,-1.69338 -2.96341,-5.81393 0,-4.68502 2.51184,-6.15261 4.177,-6.15261 1.7216,0 4.177,1.55226 4.177,6.15261 0,1.38292 -0.19756,3.92299 -2.11673,5.33414 -0.39512,-1.01603 -0.9878,-1.89094 -2.03205,-1.89094 -0.93136,0 -1.46759,0.76202 -1.46759,1.49582 0,0.47979 0.22578,0.84669 0.22578,0.87491 z m 2.79407,-0.19756 c -0.59268,0.3669 -1.18536,0.42334 -1.58048,0.42334 -0.90314,0 -1.04425,-0.81846 -1.04425,-1.10069 0,-0.50802 0.3669,-1.1007 1.07247,-1.1007 0.95958,0 1.3547,0.7338 1.55226,1.77805 z m 0.7338,0.3669 c 2.14495,-0.95958 3.66899,-3.27387 3.66899,-5.98327 0,-3.66899 -2.70941,-6.60418 -5.98327,-6.60418 -3.24564,0 -5.98327,2.87874 -5.98327,6.60418 0,3.64076 2.7094,6.49128 5.98327,6.49128 0.56446,0 1.18536,-0.11289 1.7216,-0.28223 0.25401,1.7216 0.50801,3.38676 2.20139,3.38676 1.83449,0 2.17317,-2.39895 2.17317,-3.33031 0,-0.16934 0,-0.3669 -0.19756,-0.3669 -0.16934,0 -0.19756,0.14111 -0.19756,0.31045 -0.11289,0.98781 -0.87491,1.52404 -1.63693,1.52404 -0.84669,0 -1.29826,-0.6209 -1.74983,-1.74982 z m 0,0"
         style="fill:#000000;fill-opacity:1;stroke:none;stroke-width:0"
         inkscape:connector-curvature="0" />
      <path
         id="path21630"
         d="m 407.73868,275.42038 v 1.60871 l 2.59651,-0.19756 v -0.56446 c -1.24181,0 -1.38292,-0.11289 -1.38292,-1.01603 v -6.37839 l -2.65296,0.19756 v 0.56446 c 1.24181,0 1.41115,0.11289 1.41115,1.01603 v 3.18919 c 0,1.58049 -0.87491,2.79408 -2.20139,2.79408 -1.49582,0 -1.58049,-0.84669 -1.58049,-1.77805 v -5.98327 l -2.65296,0.19756 v 0.56446 c 1.41115,0 1.41115,0.0564 1.41115,1.63693 v 2.70941 c 0,1.41115 0,3.04808 2.73763,3.04808 1.01602,0 1.80627,-0.50801 2.31428,-1.60871 z m 0,0"
         style="fill:#000000;fill-opacity:1;stroke:none;stroke-width:0"
         inkscape:connector-curvature="0" />
      <path
         id="path21632"
         d="m 416.69253,275.47683 c 0.0847,0.70557 0.56446,1.46759 1.41115,1.46759 0.39512,0 1.49582,-0.254 1.49582,-1.7216 v -1.01603 h -0.45157 v 1.01603 c 0,1.04425 -0.45157,1.15714 -0.64913,1.15714 -0.59268,0 -0.67735,-0.81846 -0.67735,-0.90313 v -3.58432 c 0,-0.76202 0,-1.4676 -0.64913,-2.14495 -0.70557,-0.70557 -1.60871,-0.9878 -2.4554,-0.9878 -1.49582,0 -2.73763,0.84669 -2.73763,2.03205 0,0.53624 0.3669,0.84669 0.84669,0.84669 0.50802,0 0.81847,-0.3669 0.81847,-0.81846 0,-0.22579 -0.0847,-0.81847 -0.93136,-0.81847 0.50801,-0.64913 1.38293,-0.84669 1.94739,-0.84669 0.90313,0 1.91916,0.70558 1.91916,2.31428 v 0.64913 c -0.93136,0.0565 -2.17317,0.1129 -3.30209,0.64913 -1.3547,0.62091 -1.80627,1.55227 -1.80627,2.34251 0,1.46759 1.74982,1.91916 2.87874,1.91916 1.18537,0 2.00383,-0.7338 2.34251,-1.55226 z m -0.11289,-2.96342 v 1.80628 c 0,1.69337 -1.29826,2.31428 -2.11672,2.31428 -0.87492,0 -1.60871,-0.62091 -1.60871,-1.52404 0,-0.98781 0.76202,-2.48362 3.72543,-2.59652 z m 0,0"
         style="fill:#000000;fill-opacity:1;stroke:none;stroke-width:0"
         inkscape:connector-curvature="0" />
      <path
         id="path21634"
         d="m 426.5368,275.84373 v 1.18536 l 2.65296,-0.19756 v -0.56446 c -1.24181,0 -1.41115,-0.11289 -1.41115,-1.01603 v -10.92229 l -2.56829,0.19756 v 0.56446 c 1.24181,0 1.38293,0.11289 1.38293,1.01603 v 3.89477 c -0.50802,-0.64913 -1.29826,-1.12892 -2.25784,-1.12892 -2.11673,0 -4.00766,1.77805 -4.00766,4.09233 0,2.28606 1.74982,4.06411 3.8101,4.06411 1.15714,0 1.94738,-0.6209 2.39895,-1.18536 z m 0,-4.82613 v 3.69721 c 0,0.31045 0,0.33867 -0.19756,0.64913 -0.53624,0.87491 -1.32648,1.27003 -2.11672,1.27003 -0.81847,0 -1.4676,-0.47979 -1.89094,-1.15714 -0.45157,-0.7338 -0.50802,-1.74983 -0.50802,-2.51185 0,-0.64913 0.0282,-1.7216 0.53624,-2.54007 0.39512,-0.56445 1.07247,-1.15714 2.06028,-1.15714 0.6209,0 1.38292,0.28223 1.91916,1.07248 0.19756,0.31045 0.19756,0.33867 0.19756,0.67735 z m 0,0"
         style="fill:#000000;fill-opacity:1;stroke:none;stroke-width:0"
         inkscape:connector-curvature="0" />
      <path
         id="path21636"
         d="m 432.7248,270.84826 v -1.97561 l -2.51185,0.19756 v 0.56446 c 1.27004,0 1.41115,0.11289 1.41115,1.01603 v 4.82613 c 0,0.79024 -0.19756,0.79024 -1.41115,0.79024 v 0.56446 c 0.70558,-0.0282 1.55227,-0.0565 2.06028,-0.0565 0.70558,0 1.55226,0 2.28606,0.0565 v -0.56446 h -0.39512 c -1.32648,0 -1.3547,-0.19756 -1.3547,-0.84669 v -2.76585 c 0,-1.77805 0.76202,-3.38676 2.11672,-3.38676 0.11289,0 0.16934,0 0.19756,0.0282 -0.0564,0 -0.42334,0.22578 -0.42334,0.70557 0,0.47979 0.39512,0.76202 0.79024,0.76202 0.31045,0 0.76202,-0.22578 0.76202,-0.79024 0,-0.56446 -0.56446,-1.1007 -1.32648,-1.1007 -1.32648,0 -1.97561,1.21359 -2.20139,1.97561 z m 0,0"
         style="fill:#000000;fill-opacity:1;stroke:none;stroke-width:0"
         inkscape:connector-curvature="0" />
      <path
         id="path21638"
         d="m 445.22053,272.96498 c 0,-2.28606 -1.77804,-4.20522 -3.95121,-4.20522 -2.25784,0 -4.00767,1.97561 -4.00767,4.20522 0,2.34251 1.86272,4.06411 3.97944,4.06411 2.17317,0 3.97944,-1.77805 3.97944,-4.06411 z m -3.95121,3.61254 c -0.79025,0 -1.58049,-0.3669 -2.06028,-1.21358 -0.45157,-0.79025 -0.45157,-1.89094 -0.45157,-2.54007 0,-0.70558 0,-1.66516 0.42335,-2.4554 0.47979,-0.81847 1.32648,-1.21359 2.06027,-1.21359 0.79025,0 1.55227,0.39512 2.03206,1.18537 0.47979,0.76202 0.47979,1.80627 0.47979,2.48362 0,0.64913 0,1.63693 -0.39512,2.42717 -0.42335,0.81847 -1.21359,1.32648 -2.0885,1.32648 z m 0,0"
         style="fill:#000000;fill-opacity:1;stroke:none;stroke-width:0"
         inkscape:connector-curvature="0" />
      <path
         id="path21640"
         d="m 448.85575,269.63467 h 2.59651 v -0.56446 h -2.59651 v -3.30209 h -0.45157 c 0,1.4676 -0.53624,3.38676 -2.31428,3.47143 v 0.39512 h 1.52404 v 4.96724 c 0,2.2014 1.69337,2.42718 2.3425,2.42718 1.27004,0 1.77805,-1.27003 1.77805,-2.42718 v -1.01602 h -0.45157 v 0.9878 c 0,1.32648 -0.53623,2.00383 -1.21358,2.00383 -1.21359,0 -1.21359,-1.63693 -1.21359,-1.94738 z m 0,0"
         style="fill:#000000;fill-opacity:1;stroke:none;stroke-width:0"
         inkscape:connector-curvature="0" />
      <path
         id="path21642"
         d="m 461.21643,272.96498 c 0,-2.28606 -1.77804,-4.20522 -3.95121,-4.20522 -2.25784,0 -4.00767,1.97561 -4.00767,4.20522 0,2.34251 1.86272,4.06411 3.97944,4.06411 2.17317,0 3.97944,-1.77805 3.97944,-4.06411 z m -3.95121,3.61254 c -0.79025,0 -1.58049,-0.3669 -2.06028,-1.21358 -0.45157,-0.79025 -0.45157,-1.89094 -0.45157,-2.54007 0,-0.70558 0,-1.66516 0.42335,-2.4554 0.47979,-0.81847 1.32648,-1.21359 2.06027,-1.21359 0.79025,0 1.55227,0.39512 2.03206,1.18537 0.47979,0.76202 0.47979,1.80627 0.47979,2.48362 0,0.64913 0,1.63693 -0.39512,2.42717 -0.42335,0.81847 -1.21359,1.32648 -2.0885,1.32648 z m 0,0"
         style="fill:#000000;fill-opacity:1;stroke:none;stroke-width:0"
         inkscape:connector-curvature="0" />
      <path
         id="path21644"
         d="m 464.76697,270.84826 v -1.97561 l -2.51185,0.19756 v 0.56446 c 1.27004,0 1.41115,0.11289 1.41115,1.01603 v 4.82613 c 0,0.79024 -0.19756,0.79024 -1.41115,0.79024 v 0.56446 c 0.70558,-0.0282 1.55227,-0.0565 2.06028,-0.0565 0.70558,0 1.55226,0 2.28606,0.0565 v -0.56446 h -0.39512 c -1.32648,0 -1.3547,-0.19756 -1.3547,-0.84669 v -2.76585 c 0,-1.77805 0.76202,-3.38676 2.11672,-3.38676 0.11289,0 0.16934,0 0.19756,0.0282 -0.0564,0 -0.42334,0.22578 -0.42334,0.70557 0,0.47979 0.39512,0.76202 0.79024,0.76202 0.31045,0 0.76202,-0.22578 0.76202,-0.79024 0,-0.56446 -0.56446,-1.1007 -1.32648,-1.1007 -1.32648,0 -1.97561,1.21359 -2.20139,1.97561 z m 0,0"
         style="fill:#000000;fill-opacity:1;stroke:none;stroke-width:0"
         inkscape:connector-curvature="0" />
    </g>
    <g
       id="g21650"
       style="fill:#000000;fill-opacity:1;stroke-width:0.73816913"
       transform="matrix(1.8062703,0,0,1.8062703,131.63811,393.30606)">
      <path
         id="path21648"
         transform="translate(133.768,146.72)"
         d="m 2.265625,-3.15625 h 1.6875 c 1.1875,0 2.265625,-0.796875 2.265625,-1.796875 C 6.21875,-5.9375 5.234375,-6.8125 3.875,-6.8125 H 0.34375 V -6.5 h 0.25 c 0.765625,0 0.78125,0.109375 0.78125,0.46875 v 5.25 c 0,0.359375 -0.015625,0.46875 -0.78125,0.46875 h -0.25 V 0 c 0.359375,-0.03125 1.09375,-0.03125 1.46875,-0.03125 0.375,0 1.125,0 1.484375,0.03125 v -0.3125 h -0.25 c -0.765625,0 -0.78125,-0.109375 -0.78125,-0.46875 z m -0.03125,-0.25 v -2.6875 C 2.234375,-6.4375 2.25,-6.5 2.71875,-6.5 h 0.890625 c 1.578125,0 1.578125,1.0625 1.578125,1.546875 0,0.46875 0,1.546875 -1.578125,1.546875 z m 0,0"
         style="stroke:none;stroke-width:0"
         inkscape:connector-curvature="0" />
    </g>
    <g
       id="g21654"
       style="fill:#000000;fill-opacity:1;stroke-width:0.73816913"
       transform="matrix(1.8062703,0,0,1.8062703,131.63811,393.30606)">
      <path
         id="path21652"
         transform="translate(140.26959,146.72)"
         d="m 3.3125,-0.75 c 0.046875,0.390625 0.3125,0.8125 0.78125,0.8125 0.21875,0 0.828125,-0.140625 0.828125,-0.953125 v -0.5625 h -0.25 v 0.5625 c 0,0.578125 -0.25,0.640625 -0.359375,0.640625 -0.328125,0 -0.375,-0.453125 -0.375,-0.5 v -1.984375 c 0,-0.421875 0,-0.8125 -0.359375,-1.1875 C 3.1875,-4.3125 2.6875,-4.46875 2.21875,-4.46875 c -0.828125,0 -1.515625,0.46875 -1.515625,1.125 0,0.296875 0.203125,0.46875 0.46875,0.46875 0.28125,0 0.453125,-0.203125 0.453125,-0.453125 0,-0.125 -0.046875,-0.453125 -0.515625,-0.453125 C 1.390625,-4.140625 1.875,-4.25 2.1875,-4.25 c 0.5,0 1.0625,0.390625 1.0625,1.28125 v 0.359375 c -0.515625,0.03125 -1.203125,0.0625 -1.828125,0.359375 -0.75,0.34375 -1,0.859375 -1,1.296875 0,0.8125 0.96875,1.0625 1.59375,1.0625 0.65625,0 1.109375,-0.40625 1.296875,-0.859375 z M 3.25,-2.390625 v 1 c 0,0.9375 -0.71875,1.28125 -1.171875,1.28125 -0.484375,0 -0.890625,-0.34375 -0.890625,-0.84375 0,-0.546875 0.421875,-1.375 2.0625,-1.4375 z m 0,0"
         style="stroke:none;stroke-width:0"
         inkscape:connector-curvature="0" />
    </g>
    <g
       id="g21666"
       style="fill:#000000;fill-opacity:1;stroke-width:0.73816913"
       transform="matrix(1.8062703,0,0,1.8062703,131.63811,393.30606)">
      <path
         id="path21656"
         transform="translate(144.97194,146.72)"
         d="m 4.140625,-3.34375 c 0.25,-0.640625 0.765625,-0.640625 0.921875,-0.640625 v -0.3125 c -0.234375,0.015625 -0.515625,0.03125 -0.75,0.03125 -0.171875,0 -0.640625,-0.015625 -0.859375,-0.03125 v 0.3125 c 0.3125,0 0.46875,0.171875 0.46875,0.421875 0,0.109375 -0.015625,0.125 -0.0625,0.25 L 2.84375,-0.875 1.75,-3.546875 C 1.703125,-3.65625 1.6875,-3.6875 1.6875,-3.734375 c 0,-0.25 0.359375,-0.25 0.5625,-0.25 v -0.3125 c -0.265625,0.015625 -0.921875,0.03125 -1.09375,0.03125 -0.265625,0 -0.671875,-0.015625 -0.96875,-0.03125 v 0.3125 c 0.484375,0 0.671875,0 0.8125,0.34375 L 2.5,0 C 2.4375,0.125 2.296875,0.453125 2.25,0.59375 2.03125,1.140625 1.75,1.828125 1.109375,1.828125 c -0.046875,0 -0.28125,0 -0.46875,-0.1875 0.3125,-0.03125 0.390625,-0.25 0.390625,-0.421875 0,-0.25 -0.1875,-0.40625 -0.421875,-0.40625 -0.203125,0 -0.421875,0.125 -0.421875,0.421875 0,0.453125 0.421875,0.8125 0.921875,0.8125 0.625,0 1.03125,-0.578125 1.265625,-1.140625 z m 0,0"
         style="stroke:none;stroke-width:0"
         inkscape:connector-curvature="0" />
      <path
         id="path21658"
         transform="translate(150.2302,146.72)"
         d="M 1.765625,-6.921875 0.328125,-6.8125 V -6.5 c 0.703125,0 0.78125,0.0625 0.78125,0.5625 V -0.75 c 0,0.4375 -0.109375,0.4375 -0.78125,0.4375 V 0 C 0.65625,-0.015625 1.1875,-0.03125 1.4375,-0.03125 c 0.25,0 0.734375,0.015625 1.109375,0.03125 v -0.3125 c -0.671875,0 -0.78125,0 -0.78125,-0.4375 z m 0,0"
         style="stroke:none;stroke-width:0"
         inkscape:connector-curvature="0" />
      <path
         id="path21660"
         transform="translate(152.99781,146.72)"
         d="M 4.6875,-2.140625 C 4.6875,-3.40625 3.703125,-4.46875 2.5,-4.46875 c -1.25,0 -2.21875,1.09375 -2.21875,2.328125 0,1.296875 1.03125,2.25 2.203125,2.25 1.203125,0 2.203125,-0.984375 2.203125,-2.25 z m -2.1875,2 c -0.4375,0 -0.875,-0.203125 -1.140625,-0.671875 -0.25,-0.4375 -0.25,-1.046875 -0.25,-1.40625 0,-0.390625 0,-0.921875 0.234375,-1.359375 C 1.609375,-4.03125 2.078125,-4.25 2.484375,-4.25 c 0.4375,0 0.859375,0.21875 1.125,0.65625 0.265625,0.421875 0.265625,1 0.265625,1.375 0,0.359375 0,0.90625 -0.21875,1.34375 C 3.421875,-0.421875 2.984375,-0.140625 2.5,-0.140625 Z m 0,0"
         style="stroke:none;stroke-width:0"
         inkscape:connector-curvature="0" />
      <path
         id="path21662"
         transform="translate(157.97911,146.72)"
         d="m 3.3125,-0.75 c 0.046875,0.390625 0.3125,0.8125 0.78125,0.8125 0.21875,0 0.828125,-0.140625 0.828125,-0.953125 v -0.5625 h -0.25 v 0.5625 c 0,0.578125 -0.25,0.640625 -0.359375,0.640625 -0.328125,0 -0.375,-0.453125 -0.375,-0.5 v -1.984375 c 0,-0.421875 0,-0.8125 -0.359375,-1.1875 C 3.1875,-4.3125 2.6875,-4.46875 2.21875,-4.46875 c -0.828125,0 -1.515625,0.46875 -1.515625,1.125 0,0.296875 0.203125,0.46875 0.46875,0.46875 0.28125,0 0.453125,-0.203125 0.453125,-0.453125 0,-0.125 -0.046875,-0.453125 -0.515625,-0.453125 C 1.390625,-4.140625 1.875,-4.25 2.1875,-4.25 c 0.5,0 1.0625,0.390625 1.0625,1.28125 v 0.359375 c -0.515625,0.03125 -1.203125,0.0625 -1.828125,0.359375 -0.75,0.34375 -1,0.859375 -1,1.296875 0,0.8125 0.96875,1.0625 1.59375,1.0625 0.65625,0 1.109375,-0.40625 1.296875,-0.859375 z M 3.25,-2.390625 v 1 c 0,0.9375 -0.71875,1.28125 -1.171875,1.28125 -0.484375,0 -0.890625,-0.34375 -0.890625,-0.84375 0,-0.546875 0.421875,-1.375 2.0625,-1.4375 z m 0,0"
         style="stroke:none;stroke-width:0"
         inkscape:connector-curvature="0" />
      <path
         id="path21664"
         transform="translate(162.96041,146.72)"
         d="m 3.78125,-0.546875 v 0.65625 L 5.25,0 v -0.3125 c -0.6875,0 -0.78125,-0.0625 -0.78125,-0.5625 V -6.921875 L 3.046875,-6.8125 V -6.5 c 0.6875,0 0.765625,0.0625 0.765625,0.5625 v 2.15625 c -0.28125,-0.359375 -0.71875,-0.625 -1.25,-0.625 -1.171875,0 -2.21875,0.984375 -2.21875,2.265625 0,1.265625 0.96875,2.25 2.109375,2.25 0.640625,0 1.078125,-0.34375 1.328125,-0.65625 z m 0,-2.671875 v 2.046875 c 0,0.171875 0,0.1875 -0.109375,0.359375 C 3.375,-0.328125 2.9375,-0.109375 2.5,-0.109375 2.046875,-0.109375 1.6875,-0.375 1.453125,-0.75 1.203125,-1.15625 1.171875,-1.71875 1.171875,-2.140625 1.171875,-2.5 1.1875,-3.09375 1.46875,-3.546875 1.6875,-3.859375 2.0625,-4.1875 2.609375,-4.1875 c 0.34375,0 0.765625,0.15625 1.0625,0.59375 0.109375,0.171875 0.109375,0.1875 0.109375,0.375 z m 0,0"
         style="stroke:none;stroke-width:0"
         inkscape:connector-curvature="0" />
    </g>
    <g
       id="g21670"
       style="fill:#000000;fill-opacity:1;stroke-width:0.81153202"
       transform="matrix(1.6429827,0,0,1.6429827,-69.39277,175.12638)">
      <path
         id="path21668"
         transform="translate(133.768,158.675)"
         d="M 2.3125,-6.671875 C 2.21875,-6.796875 2.21875,-6.8125 2.03125,-6.8125 H 0.328125 V -6.5 H 0.625 c 0.140625,0 0.34375,0.015625 0.484375,0.015625 0.234375,0.03125 0.25,0.046875 0.25,0.234375 v 5.203125 c 0,0.265625 0,0.734375 -1.03125,0.734375 V 0 C 0.671875,-0.015625 1.171875,-0.03125 1.5,-0.03125 c 0.328125,0 0.8125,0.015625 1.15625,0.03125 v -0.3125 c -1.015625,0 -1.015625,-0.46875 -1.015625,-0.734375 v -5.1875 c 0.046875,0.046875 0.046875,0.0625 0.09375,0.125 L 5.796875,-0.125 C 5.890625,-0.015625 5.90625,0 5.96875,0 6.109375,0 6.109375,-0.0625 6.109375,-0.265625 v -5.5 c 0,-0.265625 0,-0.734375 1.03125,-0.734375 v -0.3125 c -0.359375,0.015625 -0.84375,0.03125 -1.171875,0.03125 -0.328125,0 -0.8125,-0.015625 -1.15625,-0.03125 V -6.5 c 1.015625,0 1.015625,0.46875 1.015625,0.734375 V -1.5 Z m 0,0"
         style="stroke:none;stroke-width:0"
         inkscape:connector-curvature="0" />
    </g>
    <g
       id="g21674"
       style="fill:#000000;fill-opacity:1;stroke-width:0.81153202"
       transform="matrix(1.6429827,0,0,1.6429827,-178.24813,210.8595)">
      <path
         id="path21672"
         transform="translate(144.5575,158.675)"
         d="m 1.359375,-0.78125 c 0,0.359375 -0.03125,0.46875 -0.796875,0.46875 H 0.328125 V 0 h 5.75 L 6.5,-2.578125 H 6.25 C 6,-1.03125 5.765625,-0.3125 4.0625,-0.3125 H 2.734375 C 2.265625,-0.3125 2.25,-0.375 2.25,-0.703125 V -3.375 h 0.890625 c 0.96875,0 1.078125,0.328125 1.078125,1.171875 h 0.25 V -4.84375 h -0.25 c 0,0.859375 -0.109375,1.171875 -1.078125,1.171875 H 2.25 v -2.40625 c 0,-0.328125 0.015625,-0.390625 0.484375,-0.390625 h 1.28125 c 1.53125,0 1.796875,0.546875 1.953125,1.9375 h 0.25 l -0.28125,-2.25 H 0.328125 v 0.3125 H 0.5625 c 0.765625,0 0.796875,0.109375 0.796875,0.46875 z m 0,0"
         style="stroke:none;stroke-width:0"
         inkscape:connector-curvature="0" />
    </g>
    <g
       id="g21678"
       style="fill:#000000;fill-opacity:1;stroke-width:0.81153202"
       transform="matrix(1.6429827,0,0,1.6429827,-147.74669,217.74219)">
      <path
         id="path21676"
         transform="translate(154.66555,158.675)"
         d="M 0.34375,-6.8125 V -6.5 h 0.25 c 0.765625,0 0.78125,0.109375 0.78125,0.46875 v 5.25 c 0,0.359375 -0.015625,0.46875 -0.78125,0.46875 h -0.25 V 0 H 4 C 5.671875,0 7.046875,-1.46875 7.046875,-3.34375 7.046875,-5.25 5.703125,-6.8125 4,-6.8125 Z m 2.375,6.5 C 2.25,-0.3125 2.234375,-0.375 2.234375,-0.703125 V -6.09375 C 2.234375,-6.4375 2.25,-6.5 2.71875,-6.5 h 1 c 0.625,0 1.3125,0.21875 1.8125,0.921875 0.4375,0.59375 0.515625,1.453125 0.515625,2.234375 0,1.09375 -0.1875,1.703125 -0.546875,2.1875 -0.203125,0.265625 -0.765625,0.84375 -1.765625,0.84375 z m 0,0"
         style="stroke:none;stroke-width:0"
         inkscape:connector-curvature="0" />
    </g>
    <g
       id="g1619"
       ns1:jacobian_sqrt="1.333333"
       inkscapeversion="0.92.5"
       ns1:alignment="middle center"
       ns1:scale="1.0"
       ns1:preamble="/home/francois/.config/inkscape/extensions/textext/default_packages.tex"
       ns1:text="\\(l\\)"
       ns1:pdfconverter="pdf2svg"
       ns1:texconverter="pdflatex"
       ns1:version="0.11.1"
       transform="matrix(2.2929779,0,0,2.2929779,72.478675,249.84529)"
       style="stroke-width:0.58148533">
      <g
         id="surface1"
         style="stroke-width:0.58148533">
        <g
           id="g1616"
           style="fill:#000000;fill-opacity:1;stroke-width:0.58148533">
          <path
             id="path1614"
             transform="translate(148.712,134.765)"
             d="m 2.578125,-6.8125 c 0,0 0,-0.109375 -0.140625,-0.109375 -0.21875,0 -0.953125,0.078125 -1.21875,0.109375 -0.078125,0 -0.1875,0.015625 -0.1875,0.203125 0,0.109375 0.109375,0.109375 0.25,0.109375 0.484375,0 0.5,0.09375 0.5,0.171875 L 1.75,-6.125 0.484375,-1.140625 C 0.453125,-1.03125 0.4375,-0.96875 0.4375,-0.8125 c 0,0.578125 0.4375,0.921875 0.90625,0.921875 0.328125,0 0.578125,-0.203125 0.75,-0.5625 0.171875,-0.375 0.296875,-0.953125 0.296875,-0.96875 0,-0.109375 -0.09375,-0.109375 -0.125,-0.109375 -0.09375,0 -0.109375,0.046875 -0.125,0.1875 C 1.96875,-0.703125 1.78125,-0.109375 1.375,-0.109375 c -0.296875,0 -0.296875,-0.3125 -0.296875,-0.453125 0,-0.25 0.015625,-0.296875 0.0625,-0.484375 z m 0,0"
             style="stroke:none;stroke-width:0"
             inkscape:connector-curvature="0" />
        </g>
      </g>
    </g>
  </g>
</svg>
